<svg version="1.2" xmlns="http://www.w3.org/2000/svg" viewBox="0 0 232 227" width="232" height="227">
	<title>_13324e4e-cf87-4c80-b7a3-a97b7d15c721</title>
	<style>
		.s0 { fill: #03122d } 
		.s1 { fill: #041431 } 
		.s2 { fill: #f4f9f9 } 
		.s3 { fill: #8eb2c8 } 
		.s4 { fill: #5f88a9 } 
		.s5 { fill: #f13661 } 
		.s6 { fill: #bad3e4 } 
		.s7 { fill: #81a4bb } 
		.s8 { fill: #2c5071 } 
		.s9 { fill: #6f94b0 } 
		.s10 { fill: #486783 } 
		.s11 { fill: #60809a } 
		.s12 { fill: #9fc0d4 } 
		.s13 { fill: #f6ab38 } 
		.s14 { fill: #d02652 } 
		.s15 { fill: #0f1831 } 
		.s16 { fill: #081f3b } 
		.s17 { fill: #36222f } 
		.s18 { fill: #163a54 } 
		.s19 { fill: #b4bdc8 } 
		.s20 { fill: #e78d2f } 
		.s21 { fill: #cb8d5f } 
		.s22 { fill: #534e4c } 
		.s23 { fill: #8a2b4b } 
		.s24 { fill: #f3ae9a } 
		.s25 { fill: #fcfdfd } 
	</style>
	<g id="Background">
		<path id="Path 1" fill-rule="evenodd" class="s0" d="m-39-104l-1 29-88 53-90-54v-99l88-55 90 54 1 19-31-19-12 18-19 22 25-7zm233-11v-48l-82-48-78 48v67l-14 3v-78l95-57 93 57v56zm73 0v-59l94-54 89 54v106l23 41-12 10h-207l-11-13 24-38 11 7-17 29h59l11-19h54l9 19h60l-15-29-11-1v-14l8-9-1-72v-8l-79-47-74 45v52zm-734-8l1-36 14-1v12l-2 9v16zm528-14l-8-13 21-1-2 14zm279 10v-12h8l1 2-1 8-6 2zm-244 6l10-1 4 5-2 11-14 9-1 19-17 6v-32l4-3zm-63 50l-1-14 13-4 3 18zm146-14l26 6 12 20-13 32-35 1-14-35zm-160 33l15 4-20-20 15-1 11 16 10-16 15-3-20 22 22-2-10 15-17-7-19 7-6-15zm64 4l30 16 25-15 10 10-36 21-34-21zm-499 11h13l15 4v15h-28zm452 1l13 8-15 4zm-506 18l-10-3 10-11zm490 161v-79l93-57 95 56v81l15 12v31l-17 17-28 2-15-12-51 29-47-29 6-12 43 25 44-26 1-25 35-15v-69l-81-48-79 48v71zm-201-52l12-10 4-54 28-19 27 3 16 14 14 63 9 14 2 75-17 24-75 5-27-27zm-285-14l-9-22 11-23 29-1 8 11 53-33 57 34 10-20 38 26-7 20-12-7-15-16-7 13-9 2-56-34-56 33-8-3-13-13-7 16 15 1 5 12 1 15zm841 135l-19 9-88-52-1-102 92-56 91 55v41h-15l-5-4-2-10v-12l-20-11-8-8 4-7-25-14-9-2-13-11-8 19h-10l-25 8 8 12-6 9-9-7-17 12 11 18-2 10-17-8 5 34 5 8-1 13 17 9 16-14 6 8-16 20 25 8 10 1-3 9 17 6zm-751-56l-28-1-8-24-18-12v-23l18-14v-16l30-9-1 12-15 1 7 25-25 4-1 16 26 3-5 27 23-14 21 14v14h-4zm152-35l-6-8h26l6 8zm533 2l3-4h13l4 12-9 9h-1l-6-9zm126 2l15-2-1 45-51 30-6-12 9-13 9-8 16-11v-11l3-9zm-659 11l-8-1 8-7 29 5zm165-7l3-1h10v8h-6zm-172 22l7-8h26l1 8zm-222 11l5 10 17-21 38 20-12 19 30 17h9l4 13-13 5-40-25-5 15-47-37v-15zm405 4l-14-2 14-6zm68 28l-13-8v-19h12l6 15zm-367 2l7-11h1l13 1 7 14 10-11h14l-15 24-7 1h-8l-16-6zm111 183l19-60 87-70 50 30v17l25 15v17l20 27-16 8v-17l-31-30-8 20-19 10v19l19 9 3 16-8 6-11-16-18 2-27-2-10 19 13 37 28-1 20-9 8 11-38 21-42-24-3 29-29 1v-12l18-1v-18l4-12h15l2-12-41-2-1-28-12-9-4 9zm-182-104l46-25 63 36-8 11-55-31-41 21zm246-25l11 1-11 10zm91 0l11 7-13 5zm273 0l18 31h-27zm65 77l-10-8 29-22h48l-10-31 47-15 38 14 17 21-7 11 28-6 33 29-17 7v36h-13l-3-52h-73l-1-23v-19l-13 5 2 11-8 26h-28l-39 4zm-246 109l9-127 93-56 95 56v79l13 23h-12l-16-17-1-13 2-64-79-47-80 47v58l1 6v13l-16 10v23zm15-157l-5-20 13-6v26zm406-23l17 15-13 11-17-9zm-154 1l18 15-13 11-17-10zm-481 3l14 5 2 13-9 8-16-6zm147 9l16 16-22 9-5-15zm108 112v-25l28-16v-30l35-21 33 20v30l28 17 2 25v13l-12 9v17l7 12-6 11-13-7-41 24-44-23-6-10-4-26-8-7zm-464-50l4-19h16l24-21 14 20 22 5-1 15-19 4-5 14-6 1-18-6 9 17v4l-14 7-6-36zm191-37l12 9-12 2zm521 51l10-8 14 9-8 27-10-12-6-10zm-713 26l20-4v23l-17-1zm677 27l-16-2 14-13zm-387 21l-17-8 16-12zm-329-5l7-12 71 40 5-1 3 13-8 5zm835-2l23-3 10 19-16 20-15-5-3-13zm-106 20l6-10 13 10-11 7zm-347 19l19-4h14l-3 16-39 1-5-13zm-64 31l22 4v10l-21 32-16-34zm473 11l24-9 81 44 7 39h-16l-17-15-19 22-25 14-25-3-30-14-20-19-16 7h-17l1-25 56-32 2 9-35 22 66 36 72-36-33-19-35-20-18 8zm-735 7l18-4h3v6h-6l-3 1-21 14 6-15zm728 35l11-8 4 4-11 7zm-524 124l-26-4v-117l10-3h12v14l-9 2v74l1 19h12zm80-110h-38l-1-14h41v10zm-276 16l5-18 13 3 12 6 16 7 18 7 3 7-6 26-17 19-13-4-19 15-8-1-7-8-13-3-24-20-4-22-34-2v46h-14v-59l54-9h6l12 8 5 6-3 18 19 7 10-16zm516 2l1-13 14 7 17 32-13 2zm158 14l15-8 15 9 4 18 14 1v30l-18 4-4 18 31 4 1 11h28l2-9h34l4-28h20l-2-17-11-15-13 12-3 16h-19v-28l16-4v-13l15-8 16 6 1 16 19 6-1 45-90 52-89-49-5-39h18l13 21 18-17-2-10-18-4-3 1zm-108 13v-13l21 14v12l-13-1zm-66 22l-14-20 22-12 10 20zm301-5l9 3-7 10zm-61 27v-22l22-1v11l-8 13zm-319 17l1-26 16-8v12l-3 15zm-129-11l42-1h14l-6 15h-50zm-368 16v-14h112v14l4 20h12v13h-92l-1-12 24-1 5-20zm136 0v-14h13l1 14zm184 32l-25-1v-13h25zm20 0l-1-14h36l-1 14zm154 3l-15-3 6-7h9zm102 0v-10h8v10zm64 0l3-10h11v10z"/>
		<path id="Path 2" fill-rule="evenodd" class="s1" d="m-376-169l10 11-15 1zm-76 21v-12l25 1v127h11v14h-54v-14h3l1-9-1-82h13v91h14v-116zm806-3v-6l11 3 4 13 1 4-4 19 24-9 13 10-14 14-24-7v34h63v14l-150 1-11-7v-47h15v39h71v-36l-5-17 1-8zm-770 35l21-4 6-31 38 2 1 30 19 2v81l11 4v-21h13v20h27l12 2-2 13h-118v-15h44v-73h-59v69h-13zm488-21l2-14h18l24 8 20-8h38l-8 14h-10l-25 7 1 15 20 11v31l-17-5-1-19-21-8-5-1 2-11 10-12-14 7-10 1-16-16zm-392 50v-41l12-3h14l14 2v36h-13v-27h-14v35h-12zm528-28l-3 24-11-5v-19zm-590 29l-11-1 11-9zm6 20l-17-1 9-8h31v9zm-4 20v-9h4l23 2zm729 93l11 13 10-21 9 2v18l-14 14 19 7 16-18 8 8-15 15 10 21 25-13 2 10-25 14 24 17-3 9-26-7-8 12 18 17-9 8-21-19-16 6 14 19-9 3-12-9-8 15-10-1 15-27-24-1-6-8-4-11 9-9 4 5 23 11 25-8-18-5v-8l-2-16 1-7h3l17-3-7 11 9 21 8-11-7-24-18-11-29 5-13 28h-13l-13-10 2-10 14 5 10-17-9-11 6-9 11 12 21-7-15-25zm-725 11l30-3 30 40v25l-17 11-5 21-14 7v-14l-3-27 26-3v-16l-26-3 6-27h-15l-10 14-9-14 1-12zm-68 3l5-4 8 3-8 13zm125 0l9-2 15 10 7-7 12 7-3 7-13 5-14 9zm29 27l10-5v94l-15 12h-14l-10-9-7 6-13-1 9-16h37zm-177 75v-79l14 5v73zm94-43l-13-10 12-16 14 9zm808 5v-18h15v16zm-491-4l-4-8h31l-3 8zm343 14l22-12 4 8-21 12zm-333 1v-8h15l-3 8zm80 7l18-2 16 14 3 27-6 12-8-4-3-12-4-22-13 7-12-8-5-8v-4zm-68 0l6 8h-32l8-8zm-14 23v-8l14 5zm68 28l5-12 16 4 3 12-10 6zm359-3l13-5 6 12-23 14-12-9 6-12zm-745 16l19-11 6 12-21 12zm-95 61l9 8-15 6zm9 146l-7-113 41-26 5 12-32 19v96zm486-135l-2 15-6-15zm310 32l8-26 5 9 6-6 1 23zm-661-14l8-11 21 13v110l-78 45-3-13 67-38v-97zm272 9h11l1 10-10 2zm302 21l20-12v78l27 2h133l3-28v-4h13l-6 40-41 6-23 3h-19l7 15-11 6-11-6 11-17-22 1v19l22 11 22-11 3 13-24 14-37-9v-39h-47l-13-11-2-15v-25l-16-3zm-620 26l6-1-1 19-14-6v-4zm312 10l16-8 11 1v78l-13 1v12h-14v-14h-19v18h-14v-17l-8 3-8-11-4-19 9-11 8-6 18 1 4-20zm-301 27l1-23 19 4-6 20zm148 74l-14-3-1-26h-17v-56h13v42h41l-4 12h-19l1 19zm240-70v-13h16l-1 13zm142 0v-13h14l1 13zm-136 10l-1-3h5l9 4-4 24-7-2 6-16zm146 2l3-5h2l7 10-4 3zm-567-2h12l3 10-11 5zm571 33l17-11v-15h12v23l-19 14-35-5 6-11zm-181-1l9-9 18 10 16-5 9-5 6 10-40 13zm274 3l-1 9-17-9 10-7zm-149 62l2-10 22-1 25 20-6 6-2-3-1-1-15-13zm-449 20l-3-23 20-5 4 13-3 9zm636-19l16-9 3 9-5 4-12 5zm-723 22l30-12 23 16-11 28-12-6-15-28-13 6v5l15 14-5 18-15 4-5-6 4-34 2-2zm-26 31l-5-13 16-7-5 20zm230-6v-14h28l2 14zm100-4l6-10h42l8 3v105h-14v-94h-39zm173 79l-9-21 5-28 18-18 30-6 8 3-1 13-3-1-27 2-16 21 14 48h16l20-1 15-41 13-2-18 55-26 1h-10l-22-4zm189-13v-52h17l3 22 6 21-8 9zm-590-41l10-7h40l2 14-1 82-41 1-1-14 29-1v-67l-35-1zm755 10l4-13h16v35l-19-6zm-115 2l3-11 30 14-15 16-14-1zm58 6l25-14 1 8v13l-16 4zm-213 3l17-10v13l-4 13 12-1 13 1v78l-3 10h-56v-10l21-1zm173 40l10-5v-26h30v15l-22 1v22l-9 19-31-4 4-18zm-284 2v-12l20 7 1 19 1 38h60v10h-102v-10l3-22v-8l14-7h11zm-514 27l-16-2v-35h14l2 23zm830-21l8-13 9 11 1-10h19l9 4-4 28h-34zm-558 20v-15h96v14l-53 1zm-160 1v-14h24v14zm474 2l3-10 11 7zm-266 30v-14h19l1 14zm-192 1v-13l13 9z"/>
		<path id="Path 3" fill-rule="evenodd" class="s2" d="m-454-194l17 2-11 13zm820 39l8-10 7 6-12 18-4-13zm-29 0l7-6 10 10-5 14-1-2zm-645 24v-10h14v10zm414 9l14-7-10 12zm-533 45v-8l7 2zm456 8l4-2h15l2 2-10 16zm-72 110l-10-3 9-9zm-31 44l20 3-6 13-11 1-9-14zm-130 18l-1-15 19-3 5 6-7 88h-8l-12-5v-8l12-7-18-1 2-7h15l-1-8h-26v-7l29-3-29-5v-7h26l-6-8zm553 14l12-7 2 16zm-406 11l1-7h24l1 7zm349 15l21-12 6 9-28 16zm108-7l26 7v11zm-452 7v-7h18v7zm411 221l-9-6 8-13 10 6zm-17 138l18-8 35 20-5 10-34-10-14 2-5-10zm-726 1l3-1h6l32 15v8l-4 3-23-16-30 12-5-7zm176 32v-17l16-10 26 1v8l-31 2 29 6v10zm120-18v-8h30v8zm113 7h28l-21 10 36 1 5 27-14-19h-15l-20-3zm-115 11v-10h42v10zm-22 14l2-4h14l3 4v18l-19-8zm124 9v-8h32l23 21-31 2h-20v-3l17-12zm-164 19l18-2h9l-19 24-9-8zm36 30l13-19 10 5v18zm140-6v-8h34l-2 8zm162 5l-12 1 4-13zm220 5l13-12 11 15h-8l-9-3zm-590 7l29-13 6 13h21v10h-56zm-220 3l13 3-6 11zm420 42v-8l17 1v7zm183 0v-8h21v8z"/>
		<path id="Path 4" fill-rule="evenodd" class="s3" d="m282-96l25-15 46-1v36h-71zm-722-4h-13v-9h13zm-14 12l14-1v9l-14-2zm10 149l-15-1 7-16 13 13zm134-2l7-13 15 16-7 7zm18 22l13-5-1 101v-94l-10 5zm626 55l22-1v12l-23-11zm-315 31l6-12 12 8 13-7 4 22-13 8-16-4zm-306 107l10 10-11 4zm307 153v-23l16-10h10v7h-5l-13 10v4l10 15v7zm-492-11l10 9-12 4zm645 16l-7-12h7l19 9v8zm-153 88l31-22 49 1 11 6v34l10 12-30 6-18 18-5 28 9 21-7 4-20-7-16 8-1 26v1l-17-1h-9v-54h49l2-8h-22v-20l31-2-23-21v-7h15l14 19-5-27-36-1 21-10h-28zm-113 47v-18h39v94l-42 1h-99l11-16h89l2-17v-18l13-12zm236-6l6-8 58 3 21 33-19 4-10 2-21-14-17 10v67l-14 1-5-11 18-55zm-295 16h-37l2-13h53v11zm351 24h29l-8 54h-21zm-575 32l19-15 13 4 17-19 7 43h-56z"/>
		<path id="Path 5" fill-rule="evenodd" class="s4" d="m-317-220l17-7 8 8v29h-21zm-120 28l10-5 1 16-15 13-22-7-3-20 12 1 6 15zm61 96v-10h32v53h-9l-23-2v-11h23v-9h-31l8-11h23l-1-10zm-44 13l4-2v53h-11v-45zm820 145l-16 18-19-7 14-14v-18l25 14zm-70 97l24 1-15 27-25-8zm48 20l-14-19 16-6 21 19-9 13-13 5zm-754-23l20 3 4 20 12 6-7 11-19 11h-9zm725 32l8-15 12 9v9l-6 12-17-6zm-762 99l41-21 55 31 15 9v44l-17-5-14-14 1-15-22-5-14-20-24 21h-16l-4 19-14 14-10-2-5 12 16 2 12 14 3 18 17 1 14 14 4 15 1 23-71-40v-96zm729 44v-20h43l-1 34-8 13 9 6v31h-55v-18h30l5-23-5-23zm-688 30l-9-17 18 6v3zm427 44l4-4 4 26-9 5-3-3zm141 9l4-3h9v15l-17 11v-7l4-12zm-594 114l13-6 15 28-13-3-15-14zm51 0l4-3 4 2 16 25 2 7-21 4-16-7zm-68 7l11-6-4 34-12-8zm764 50l25 3 10 11v28l-1 10-9-11v-26h-30v26l-10 5v-30zm-278 62l13-2 22 4-14 10 24 3-12 8 12 5-2 10h-42z"/>
		<path id="Path 6" class="s5" d="m344-161l-2-22 15-16 17 13v21l-8 10-2-19-10 17v6zm-252 10l3-19 26-7-5 34zm-174-7l12-18 31 19v53l-37-39 10-11zm-226 17l-9-20 21-10 10 11-8 19zm689-18l27 5-7 16-13 8-18-7-1-4zm-39 32l-22-2-10-18 6-10 21 2 11 16h-8l-11 4 11 8zm-266 23l-21-14 6-19h11 8v30zm76 0l-20-11-1-15 25-7 9 24zm-59 26l1-19 14-9 5 1 9 34-11 5zm-312 99l16 2 7 18-14 15-17-5-4-17zm-154 110l-23 14 5-27-26-3 1-16 25-4-7-25 15-1 9 14v11l-12 16 13 10zm731 214l1-34h5 73l3 52v4l-26 11-6 17h-49v-31l9-13zm-526 180l-29-6 31-2z"/>
		<path id="Path 7" class="s6" d="m-403-37v-69h27v10h-6l-11 9 11 1h6l-8 11-9 8 17 1v11h-4-13l10 10 7 12h-12zm-28 97l56-33-1 31-6-1-30 9v16l-18 14v23l18 12 8 24 28 1 1 51-30-17 12-19-38-20-17 21-5-10v-73l-14-5 1-7 28 11-1-15zm216 98l-1-7h4l-2 7zm128 232l-3-16-19-9v-19l19-10 8-20 31 30v17l-14 8-4 20zm387-45l-6-13 16-1v6zm-6 21l12-5 10 12v4h-12zm-414 69l-28 1-13-37 10-19 27 2v17l-16 12 17 8zm-240 63l2-4 13 8-2 4zm376 72l-10-6 6-6h21zm-419-1l15-4 11 13-10 16-19-7zm602 26l10-2-4 8h-6zm-596 40l6-11 7 8v14h-16z"/>
		<path id="Path 8" fill-rule="evenodd" class="s7" d="m401-138l34-19 1 72-8 9h-63v-34l24 7 14-14-13-10-24 9 4-19 18 7zm-855 11l14-1v8l-14-1zm0 59l14-2v10l-14-1zm0 19h14v8l-14-1zm238 19l38 7-41 2zm-159 57l56 34 13 29 14-9 2 7-3 81h-37l-8-17 5-21 17-11v-25l-30-40-30 3zm49 159l7-6 10 9-10 11zm603 180v-15h23l6 10-12 5zm-239 64l2-3h4l7 2 3 3-16 5zm85 91l35-9v4l-20 2 1 8 3 10-14 3zm-450 82l6-26 35 1v67l-29 1h-5z"/>
		<path id="Path 9" fill-rule="evenodd" class="s8" d="m-307-120h14v87h-14zm-13 67v21l-11-4v-51h11l1 2zm262 4l27 7-30 3zm488 152l5 4v18l-6 9-24-17zm-626 76l-13 5 1-10zm138-5l11 7-12 3zm-244 82l9 11-8 7-9-7zm-30 115l13-12h17v44l-67 38-5 1-1-23 11-5-3-10 15-14 14 1zm692 62l11-6-7-15h19l-1 18-22 11zm-169-8l5-7-4 12v-1zm-594 74l7-4 1.1-0.2-9.1 5.2zm25-14v6l-16.9 3.8zm86 21l-4-13 18 4-1 13zm204 3l-6-8h40l-4 8zm-364-3h11v11h-11zm139 15l18-6 13 8-17 16zm223 4l-8-7 10-1h44l-4 8zm-368 15h11v11h-11zm309 119l53-1h50l-64 1 5 19h-49zm-229-163h4-1z"/>
		<path id="Path 10" fill-rule="evenodd" class="s9" d="m-313-190l-22-6 18-24zm-141 51l2-9h12v9zm803 186l8-19 13 11-10 21zm-27 20l-8-12 25-8 15 25-21 7zm-35 68l-5-34 17 8 13 10-3 4zm-639 24l14-7 8 17-9 16h-1l-12-6-4-20zm629 156l39-4v20h-6l-16 1 6 13v6h-23zm27 80l-27-2v-27h17l10 11zm-258 6v-7h5l8 7-4 4zm-18 10l14-7 8 7-6 16h-4l-12-12zm163 14l-15-10 12-9 8 8v4zm169 16l-22-11v-19l22-1-11 17 11 6zm-564 11l-1-19h19v18zm134-1v-18h19v14zm206 50l25-2 15 13 1 1 2 3 9 7-11 16-17-8v-5l-2-10v-4l18 10-13-17-24-1zm147 58l16-7 20 19-3 11-15-9-15 8zm116 15l19-22 17 15-4 13-16-6-15 8zm-329 54l7-4 7 21-13 2z"/>
		<path id="Path 11" fill-rule="evenodd" class="s10" d="m-386-207l27-5-21-6zm-14 18l2 9 51-4-32-14zm-40 61v-11h-14v12zm0 39v-11h-13v-9h13v-11l-14-1v33zm0 19v-10l-14-2v14zm0 21v-11l-14-1v12zm214 10l31-3-30-7zm-228-3v10h14v-9zm371 21l39-3-37-6zm465 121l-7 11 9 21 8-11-7-24-18-11-2 17zm-438 28h-1l-2 1zm412 7v12l25-8-18-5zm-803 132l15-2-10-11zm489 137l-1-3-13 10zm-508 38l8 11 12-9-11-11zm108 52l13 8 10 1-12-11-31-7v6zm-45 34h1v-1h-1zm-1 1h1v-1h-1zm80 41l10-7-7-4-21 4zm449 82l11 7-14 3-6 13-2 10h26l21-1v-26l-14 1-5-11-26 1z"/>
		<path id="Path 12" class="s11" d="m-292-190v-29l15 2 7 17zm-174-5l16-15 23 13-10 5-17-2zm86 149l27-7h9v20h-32l-7-12zm573 447v-7l16 17h-9zm-54 125h21v5l-18 5z"/>
		<path id="Path 13" class="s12" d="m-74 85l26-26 25 18-37 24 6-13zm-130 18l-33-27 25-15 26 24-19 3zm529 16l13-28 29-5-2 17h-3l-24-5 2 19-6 19h-1l-4-5zm85 46l-18-17 8-12 26 18zm-119-9l28-16h1l4 11-16 14zm19 181v-6h6 18l5 23-5 23h-18v-4l8-27zm-434 45l18-2 11 16-9 11 4 19-20 9-3-16-1-20zm290 38v-17l12-9h15v7h-2l-14 2-4 17zm-154 130l8-30 5 4-1 16 20 3v7zm12 43h-17l-1-19 10-1h20v20zm-408 53v-14l8 1v13zm405 39l-5-22h17l-3 22zm178 0v-22h21l-10 22z"/>
		<path id="Path 14" class="s13" d="m-82-158l16 4-10 11-25 7zm39 208l-19-10 3-15 16-5-1 9-9 9 10 3zm-180 329l4-9 12 9 1 28 41 2-2 12h-15-41zm565 137l14-2v9l-13 4-11 8-7-9zm-467 59l13-16 19 8 13 14-13 12-10-5-13 19-12 11h-21l-6-13-29 13-4-23 14 13 21-17 9 8zm237 62h-16l-14-48 16-21 27-2-5 18-22 12 14 20z"/>
		<path id="Path 15" class="s14" d="m116-143l5-34 14 9 1 17zm-36 36v-30l16 16zm85-6l-9-24h10l7 19zm-52 8l21 8 1 19-13 7zm-487 188l10-14h15l-6 27 26 3v16l-26 3 3 27-21-14v-11l13-17-14-9zm782 312l6-17 26-11-3 28zm-116 207l3-1 3 3-5 20 18-9h4l-18 17-13-21z"/>
		<path id="Path 16" fill-rule="evenodd" class="s15" d="m354-157l10-17 2 19-1 1zm-14 30l-11-8 11-4zm-633 94v-60h13v60zm-27-20l1-32h12v32zm25 568l3-9 13 4-3 13z"/>
		<path id="Path 17" fill-rule="evenodd" class="s16" d="m-382-86v-10h28l1 10zm-1 41l-10-10h13v9zm717 181l6-19h9l14 9v8l-7 1zm-293 50l13-8 3 12-13 8zm-3 244l-10-15 12 12zm392 3l23 7-23 3zm-805 69v-6h1l14 2 13 8 4 11zm554 14l6-6 3 13zm-40 10l-1-8 20-2 2 10zm-462 26l-16-25 18 14z"/>
		<path id="Path 18" fill-rule="evenodd" class="s17" d="m343 527l13-4 28 12-4 4-28-9-5 1zm9 9l23 7-5 4-24-1-4-2zm-41 79l-18 9 5-20z"/>
		<path id="Path 19" class="s18" d="m340 117l-2-19 24 5-1 7-12 7zm-333 50l13-20 5 8-6 12zm362 15l9-3 1 12h-10zm-17 103l-2-11 13-5v19l-6 6zm-777 72l-16-2 5-12 10 2zm106-12l17 5v9h-17zm-44 5l6-1v3l-6 1zm536 70l4-17 14-2-3 5-12 9 15 10 1 4zm-34 84l24 1 13 17-18-10-35 9zm-570 2h11v11h-10zm537 143h10l9 3-3 10-6 13-12-5 12-8-24-3z"/>
		<path id="Path 20" class="s19" d="m-403 499l7-4v5l-3 2zm-1 0h1v1h-1z"/>
		<path id="Path 21" class="s20" d="m-44 29l1-9 13 18-13 12v-9zm400 494v-9l34 10-6 11zm-4 7l28 9-5 4-23-7zm-6 16l24 1-4 4-14 1zm-226 38l5-18 3 1 19 28-15 41-20 1v-21l18-12z"/>
		<path id="Path 22" class="s21" d="m347 531l5-1v6l-10 8-6-6z"/>
		<path id="Path 23" class="s22" d="m-208 166l-16-2 9-6h1l18 1z"/>
		<path id="Path 24" class="s23" d="m295 601l18 4 2 10h-4l-13-11z"/>
		<path id="Path 25" class="s24" d="m-192 508l29-7-3 8z"/>
		<path id="Path 26" fill-rule="evenodd" class="s25" d="m-132-142l17 10-5 15-16 1-7-14zm473 101h33l4 9h-40zm-473 65l27 19-1 33h-46l1-38zm0 79l20 13-11 22 11 42h-34l11-41-11-23zm245 201l22 13v22l-11 8-31-8v-22zm-243 45l11 12-17 2zm215 2l13 6 10 28-20 14-24-13v-21zm56 0l23 13v23l-21 13-21-13zm-28 48l24 15 17-6v12l-45 21-32-19-1-13 15 5z"/>
		<path id="Path 27" class="s0" d="m291-52l26 2-6 9h-26zm108 0h26l6 9-28 2zm-323 172l-31-1-3-10 21-19 33-3-14-24 7-17 7 23 33 2 5 6-1 10 34 3 20 18-3 11-35-1 19 8-2 9-21-7-9-2 5 7 13 6-19 2 11 19-17 1-13 19-18-19h-16l13-10-10-8-1-9 8-8-14 2zm325 219l16 15-15 19z"/>
		<path id="Path 28" fill-rule="evenodd" class="s1" d="m85 143l-1-9-7 2zm-173 216l18-1-11-13z"/>
		<path id="Path 29" fill-rule="evenodd" class="s2" d="m-303-164l10 11h-18zm87 191l12 4 1 13-21 1zm294 101l14-2-8 8-7 2v-7zm106 25l26 10-1 21-25 9-13-15zm-372 181l9 11-15 2zm19 0l11 10-12 7zm-19 22l9 12-9 7-8-8zm20 0l10 11-14 5zm36 136l8 5-8 11z"/>
		<path id="Path 30" class="s4" d="m-374-119l-10-1v-22h10zm334 490l2 50-57-6 4-8h37v-27z"/>
		<path id="Path 31" class="s5" d="m-145-103l9 2-4 40-14 6-10-11zm39 412l-3 20-26 8-12-10 5-10-24-11 3-17 12 2 21-26 20 10 4 16z"/>
		<path id="Path 32" class="s6" d="m141 133l-5-7 9 2zm-569 35l15 10-7 11-15-7z"/>
		<path id="Path 33" class="s7" d="m-117-163l13-23 6 13-11 13zm-42 41l4 10-23 17-13-5 2-10zm59 0l34 19-13 8-24-18z"/>
		<path id="Path 34" fill-rule="evenodd" class="s8" d="m-374-119v-23h11v22zm65 710l13 6-13 2z"/>
		<path id="Path 35" fill-rule="evenodd" class="s9" d="m-117-163l3 11 5-8zm164 847h11v-23h-11z"/>
		<path id="Path 36" fill-rule="evenodd" class="s11" d="m-455 599l12-1-11-7zm629 86l12-2v-62l-11-1z"/>
		<path id="Path 37" fill-rule="evenodd" class="s13" d="m-154-186l11 5 6 26-8 3-14-19zm-33 26l32 16-2 9-29-8zm73 77l10-2 7 12-7 7zm226 677l7 7-7 4z"/>
		<path id="Path 38" class="s14" d="m-106 291h13l1 16-14 2z"/>
		<path id="Path 39" class="s15" d="m129 71l12-23 6 15-13 14zm-52 58l-17 3 16-12 2 8z"/>
		<path id="Path 40" class="s18" d="m176 512h1v1h-1z"/>
		<path id="Path 41" fill-rule="evenodd" class="s20" d="m-114-83l-7-14 7-7 10 19zm294 13l22 14-22-8zm-12 17l14 11 21-6-22 12z"/>
		<path id="Path 42" class="s21" d="m180-64l-11 8 11-14z"/>
		<path id="Path 43" fill-rule="evenodd" class="s0" d="m192 168l1-8 12 15-13 11zm-321 123l10 13-17 1z"/>
		<path id="Path 44" class="s1" d="m192 186l-14-17 15-9-1 8v10z"/>
		<path id="Path 45" class="s3" d="m110 101l13 3 4 15-25 3z"/>
	</g>
</svg>